<?xml version="1.0" standalone="no"?>
<!DOCTYPE svg PUBLIC "-//W3C//DTD SVG 20010904//EN"
 "http://www.w3.org/TR/2001/REC-SVG-20010904/DTD/svg10.dtd">
<svg version="1.0" xmlns="http://www.w3.org/2000/svg"
 width="89.000000pt" height="88.000000pt" viewBox="0 0 89.000000 88.000000"
 preserveAspectRatio="xMidYMid meet">
<metadata>
Created by potrace 1.15, written by Peter Selinger 2001-2017
</metadata>
<g transform="translate(0.000000,88.000000) scale(0.100000,-0.100000)"
fill="#000000" stroke="none">
<path d="M370 870 c-69 -14 -145 -40 -175 -60 -59 -39 -126 -115 -158 -179
-31 -64 -32 -69 -32 -196 0 -128 1 -132 33 -198 44 -90 117 -161 208 -204 l73
-35 133 4 c127 3 137 4 198 35 78 39 157 125 204 223 29 61 31 72 31 180 0
111 -1 118 -34 185 -89 179 -295 284 -481 245z m250 -57 c36 -17 79 -43 95
-58 19 -16 22 -22 9 -16 -11 5 -58 17 -104 27 -140 28 -331 8 -444 -47 l-40
-19 34 36 c78 81 171 115 300 111 71 -2 96 -8 150 -34z m-466 -330 c17 -45 34
-84 37 -88 4 -3 21 35 39 85 26 72 36 90 52 90 11 0 18 -4 16 -8 -1 -5 -23
-63 -48 -131 -38 -104 -48 -121 -65 -119 -14 2 -26 20 -41 63 -12 33 -34 91
-48 128 l-26 68 27 -3 c22 -3 30 -14 57 -85z m420 81 c9 -3 16 -17 16 -30 0
-24 -14 -32 -25 -14 -3 6 -29 10 -56 10 -66 0 -99 -30 -99 -90 0 -80 93 -130
158 -84 21 14 22 14 22 -10 0 -32 -26 -46 -85 -46 -90 0 -145 51 -145 134 0
58 16 88 64 117 31 19 116 26 150 13z m256 -14 c0 -17 -7 -20 -45 -20 l-45 0
0 -40 0 -40 41 0 c33 0 40 -3 37 -17 -3 -14 -11 -17 -41 -15 l-37 4 0 -61 c0
-60 -1 -61 -27 -61 l-28 0 0 135 0 135 73 0 c65 0 72 -2 72 -20z"/>
</g>
</svg>
